<?xml version="1.0" ?><!-- Uploaded to: SVG Repo, www.svgrepo.com, Generator: SVG Repo Mixer Tools -->
<svg fill="#000000" width="800px" height="800px" viewBox="0 0 32 32" xmlns="http://www.w3.org/2000/svg"><title/><path d="M25,7H7a3,3,0,0,0-3,3V22a2.994,2.994,0,0,0,2.626,2.962l-.574,1.721A1,1,0,0,0,7,28h3a1,1,0,0,0,.948-.684L11.72,25H20.28l.772,2.316A1,1,0,0,0,22,28h3a1,1,0,0,0,.948-1.316l-.574-1.721A2.994,2.994,0,0,0,28,22V10A3,3,0,0,0,25,7ZM9.279,26H8.388l.333-1h.892ZM19,23H7a1,1,0,0,1-1-1V21H19Zm0-4H6V13H19Zm0-8H6V10A1,1,0,0,1,7,9H19Zm3.721,15-.333-1h.892l.333,1ZM26,22a1,1,0,0,1-1,1H21V14h5Zm0-10H21V9h4a1,1,0,0,1,1,1Zm-4,5a1,1,0,0,1,1-1h1a1,1,0,0,1,0,2H23A1,1,0,0,1,22,17Zm0,3a1,1,0,0,1,1-1h1a1,1,0,0,1,0,2H23A1,1,0,0,1,22,20Z"/></svg>