<?xml version="1.0" ?><!-- Uploaded to: SVG Repo, www.svgrepo.com, Generator: SVG Repo Mixer Tools -->
<svg fill="#000000" width="800px" height="800px" viewBox="0 0 32 32" xmlns="http://www.w3.org/2000/svg"><title/><path d="M6,19H26a1,1,0,0,0,1-1V15a1,1,0,0,0-1-1H24.82L23.98,9.8A1,1,0,0,0,23,9H20V5a1,1,0,0,0-2,0V9H14V5a1,1,0,0,0-2,0V9H9a1,1,0,0,0-.98.8L7.18,14H6a1,1,0,0,0-1,1v3A1,1,0,0,0,6,19Zm3.82-8H22.181l.6,3H9.22ZM7,16H25v1H7Zm3.9,8.618a2.352,2.352,0,0,0-.224-.359,5.256,5.256,0,0,1-.3-.468,3.221,3.221,0,0,1,.443-3.654,1,1,0,1,1,1.469,1.358,1.2,1.2,0,0,0-.162,1.329,3.274,3.274,0,0,0,.19.291,3.877,3.877,0,0,1,.426.725,2.562,2.562,0,0,1-1.281,3.27,1,1,0,0,1-.823-1.822A.578.578,0,0,0,10.9,24.618Zm5,0a2.352,2.352,0,0,0-.224-.359,5.256,5.256,0,0,1-.3-.468,3.221,3.221,0,0,1,.443-3.654,1,1,0,0,1,1.469,1.358,1.2,1.2,0,0,0-.161,1.329,3.169,3.169,0,0,0,.19.291,3.931,3.931,0,0,1,.426.725,2.563,2.563,0,0,1-1.282,3.27,1,1,0,0,1-.823-1.822A.578.578,0,0,0,15.9,24.618Zm5,0a2.4,2.4,0,0,0-.226-.363,5.259,5.259,0,0,1-.3-.463,3.22,3.22,0,0,1,.443-3.656,1,1,0,1,1,1.467,1.358,1.205,1.205,0,0,0-.16,1.33,3.3,3.3,0,0,0,.188.287,3.919,3.919,0,0,1,.428.729,2.562,2.562,0,0,1-1.281,3.269,1,1,0,0,1-.824-1.822A.578.578,0,0,0,20.9,24.618Z"/></svg>