<?xml version="1.0" ?><!-- Uploaded to: SVG Repo, www.svgrepo.com, Generator: SVG Repo Mixer Tools -->
<svg fill="#000000" width="800px" height="800px" viewBox="0 0 32 32" xmlns="http://www.w3.org/2000/svg"><title/><path d="M27.259,12.863a3.683,3.683,0,0,0-3.219-.1,4.926,4.926,0,0,0-1.22.71c-.077-.118-.146-.24-.228-.355A6.874,6.874,0,0,0,18.706,8.8v-.39a2.694,2.694,0,0,0-2.683-2.683A2.686,2.686,0,0,0,13.34,8.412V8.8a6.875,6.875,0,0,0-3.885,4.318,10.562,10.562,0,0,0-1.328,2.548,5.578,5.578,0,0,1-1.185-3.12A1,1,0,0,0,5.828,11.6c-.434.051-.867.095-1.295.138l-.2.021a1,1,0,0,0-.883.821,8.763,8.763,0,0,0,1.009,6.175A10.769,10.769,0,0,0,7.876,22.3c.009.033.014.067.023.1.728,2.162,3.468,3.659,5.479,3.659h5.287c2.016,0,4.756-1.5,5.483-3.659,0-.012.008-.024.012-.037.054-.185.086-.374.13-.561a7.2,7.2,0,0,0,3.075-1.748A5.283,5.283,0,0,0,28.831,15,3.542,3.542,0,0,0,27.259,12.863ZM7.479,19.437A10.92,10.92,0,0,1,6.161,17.7a6.138,6.138,0,0,1-.868-3.13,7.641,7.641,0,0,0,1.715,2.9c.17.181.372.332.56.5A10.835,10.835,0,0,0,7.479,19.437ZM16.023,7.729a.666.666,0,0,1,.488.212.64.64,0,0,1,.183.344,7.162,7.162,0,0,0-1.342,0A.684.684,0,0,1,16.023,7.729Zm-1.395,2.725a4.984,4.984,0,0,1,2.1-.15,4.7,4.7,0,0,1,.689.151,4.88,4.88,0,0,1,2.8,2.181H11.826A4.886,4.886,0,0,1,14.628,10.454Zm7.837,10.353c0,.014,0,.027,0,.041a8.583,8.583,0,0,1-.215.933,4.315,4.315,0,0,1-3.586,2.28H13.381A4.307,4.307,0,0,1,9.806,21.8a8.76,8.76,0,0,1,1.031-7.165H21.209A8.771,8.771,0,0,1,22.466,20.807Zm3.484-2.166a4.79,4.79,0,0,1-1.378.933,10.815,10.815,0,0,0-.785-4.279,3.084,3.084,0,0,1,1.008-.677,1.723,1.723,0,0,1,1.46-.025,1.587,1.587,0,0,1,.651.956A3.307,3.307,0,0,1,25.95,18.642Z"/></svg>