<?xml version="1.0" ?><!-- Uploaded to: SVG Repo, www.svgrepo.com, Generator: SVG Repo Mixer Tools -->
<svg fill="#000000" width="800px" height="800px" viewBox="0 0 32 32" xmlns="http://www.w3.org/2000/svg"><title/><path d="M21.042,3H10.958A3.963,3.963,0,0,0,7,6.958V25.042A3.963,3.963,0,0,0,10.958,29H21.042A3.963,3.963,0,0,0,25,25.042V6.958A3.963,3.963,0,0,0,21.042,3ZM23,25.042A1.96,1.96,0,0,1,21.042,27H10.958A1.96,1.96,0,0,1,9,25.042V14H23ZM23,12H9V6.958A1.96,1.96,0,0,1,10.958,5H21.042A1.96,1.96,0,0,1,23,6.958Zm-1-2a1,1,0,0,1-1,1H18a1,1,0,0,1,0-2h3A1,1,0,0,1,22,10Zm-5,6a1,1,0,0,1,1-1h3a1,1,0,0,1,0,2H18A1,1,0,0,1,17,16Z"/></svg>