<?xml version="1.0" ?><!-- Uploaded to: SVG Repo, www.svgrepo.com, Generator: SVG Repo Mixer Tools -->
<svg fill="#000000" width="800px" height="800px" viewBox="0 0 32 32" xmlns="http://www.w3.org/2000/svg"><title/><path d="M23,7a1,1,0,0,0,0-2H9A1,1,0,0,0,9,7h1v4.883a27.088,27.088,0,0,0,.037,14.385A1,1,0,0,0,11,27H21a1,1,0,0,0,.963-.732A27.088,27.088,0,0,0,22,11.883V7ZM12,7h8v4H17V10h1a1,1,0,0,0,0-2H14a1,1,0,0,0,0,2h1v1H12Zm8.229,18H11.771q-.184-.746-.321-1.5h9.1Q20.412,24.253,20.229,25Zm.593-3.5H11.179a25.079,25.079,0,0,1,.593-8.5h8.457A25.079,25.079,0,0,1,20.821,21.5Z"/></svg>