<?xml version="1.0" ?><!-- Uploaded to: SVG Repo, www.svgrepo.com, Generator: SVG Repo Mixer Tools -->
<svg fill="#000000" width="800px" height="800px" viewBox="0 0 32 32" xmlns="http://www.w3.org/2000/svg"><title/><path d="M28,11H23.065a1.944,1.944,0,0,1,.552-1.2l.68-.68A2.414,2.414,0,0,0,22.59,5H9.41A2.414,2.414,0,0,0,7.7,9.117l.68.68A1.943,1.943,0,0,1,8.935,11H7a1,1,0,0,0-1,1v9.125A4.854,4.854,0,0,0,7.947,25l-.9,2.686A1,1,0,0,0,8,29h3a1,1,0,0,0,.949-.684L12.721,26H19.28l.772,2.316A1,1,0,0,0,21,29h3a1,1,0,0,0,.948-1.316L24.053,25A4.854,4.854,0,0,0,26,21.125V16h2a1,1,0,0,0,1-1V12A1,1,0,0,0,28,11ZM9.41,7H22.59a.41.41,0,0,1,.41.41.417.417,0,0,1-.117.293l-.68.68A3.942,3.942,0,0,0,21.072,11H10.928A3.944,3.944,0,0,0,9.8,8.383L9.117,7.7A.414.414,0,0,1,9.41,7Zm.869,20H9.387l.333-1h.892Zm11.441,0-.333-1h.892l.333,1ZM24,21.125A2.879,2.879,0,0,1,21.125,24H10.875A2.878,2.878,0,0,1,8,21.125V17H24ZM24,15H8V13H24Zm3-1H26V13h1Z"/></svg>